<?xml version="1.0" encoding="UTF-8"?>
<svg width="1024px" height="1024px" viewBox="0 0 1024 1024" version="1.1" xmlns="http://www.w3.org/2000/svg" xmlns:xlink="http://www.w3.org/1999/xlink">
    <!-- Generator: Sketch 49.3 (51167) - http://www.bohemiancoding.com/sketch -->
    <title>Icons/Delete</title>
    <desc>Created with Sketch.</desc>
    <defs>
        <path d="M341.333333,113.777778 L341.333333,56.8295288 C341.333333,25.4434467 366.98881,0 397.697591,0 L626.302409,0 C657.431529,0 682.666667,25.1824544 682.666667,56.8295288 L682.666667,113.777778 L967.111111,113.777778 C998.529977,113.777778 1024,139.247801 1024,170.666667 C1024,202.085532 998.529977,227.555556 967.111111,227.555556 L56.8888889,227.555556 C25.4700231,227.555556 0,202.085532 0,170.666667 C0,139.247801 25.4700231,113.777778 56.8888889,113.777778 L341.333333,113.777778 L341.333333,113.777778 Z M796.444444,398.222222 C796.444444,366.803356 821.914468,341.333333 853.333333,341.333333 C884.752199,341.333333 910.222222,366.803356 910.222222,398.222222 L910.222222,853.355236 C910.222222,947.615636 833.426038,1024 739.070282,1024 L284.929718,1024 C190.341026,1024 113.777778,947.982623 113.777778,853.355236 L113.777778,398.222222 C113.777778,366.803356 139.247801,341.333333 170.666667,341.333333 C202.085532,341.333333 227.555556,366.803356 227.555556,398.222222 L227.555556,853.355236 C227.555556,884.96193 252.997239,910.222222 284.929718,910.222222 L739.070282,910.222222 C770.724849,910.222222 796.444444,884.640548 796.444444,853.355236 L796.444444,398.222222 Z" id="path-1"></path>
    </defs>
    <g id="Zedach---Atomic-Specs" stroke="none" stroke-width="1" fill="none" fill-rule="evenodd">
        <g id="Artboard-2" transform="translate(-663.000000, -560.000000)">
            <g id="Icons/Stone/Delete" transform="translate(663.000000, 560.000000)">
                <mask id="mask-2" fill="white">
                    <use xlink:href="#path-1"></use>
                </mask>
                <use id="Combined-Shape" fill="#262628" fill-rule="nonzero" xlink:href="#path-1"></use>
            </g>
        </g>
    </g>
</svg>