<?xml version="1.0" encoding="UTF-8"?>
<svg width="1024px" height="1024px" viewBox="0 0 1024 1024" version="1.1" xmlns="http://www.w3.org/2000/svg" xmlns:xlink="http://www.w3.org/1999/xlink">
    <!-- Generator: Sketch 49.3 (51167) - http://www.bohemiancoding.com/sketch -->
    <title>Icons/Stone/Home</title>
    <desc>Created with Sketch.</desc>
    <defs>
        <path d="M455.111111,682.666667 L625.777778,682.666667 C657.196644,682.666667 682.666667,657.196644 682.666667,625.777778 C682.666667,594.358912 657.196644,568.888889 625.777778,568.888889 L398.222222,568.888889 C366.803356,568.888889 341.333333,594.358912 341.333333,625.777778 L341.333333,910.222222 L113.777778,910.222222 L113.777778,535.564149 L512,137.341927 L910.222222,535.564149 L910.222222,910.222222 L625.777778,910.222222 C594.358912,910.222222 568.888889,935.692245 568.888889,967.111111 C568.888889,998.529977 594.358912,1024 625.777778,1024 L967.111111,1024 C998.529977,1024 1024,998.529977 1024,967.111111 L1024,512 C1024,496.912129 1018.00637,482.442217 1007.33763,471.773481 L552.226519,16.6623698 C530.010026,-5.55412326 493.989974,-5.55412326 471.773481,16.6623698 L16.6623698,471.773481 C5.99363359,482.442217 0,496.912129 0,512 L0,967.111111 C0,998.529977 25.4700231,1024 56.8888889,1024 L398.222222,1024 C429.641088,1024 455.111111,998.529977 455.111111,967.111111 L455.111111,682.666667 Z" id="path-1"></path>
    </defs>
    <g id="Zedach---Atomic-Specs" stroke="none" stroke-width="1" fill="none" fill-rule="evenodd">
        <g id="Artboard-2" transform="translate(-494.000000, -341.000000)">
            <g id="Icons/Stone/Home" transform="translate(494.000000, 341.000000)">
                <mask id="mask-2" fill="white">
                    <use xlink:href="#path-1"></use>
                </mask>
                <use id="Combined-Shape" fill="#262628" fill-rule="nonzero" xlink:href="#path-1"></use>
            </g>
        </g>
    </g>
</svg>