<?xml version="1.0" encoding="UTF-8"?>
<svg width="1024px" height="798px" viewBox="0 0 1024 798" version="1.1" xmlns="http://www.w3.org/2000/svg" xmlns:xlink="http://www.w3.org/1999/xlink">
    <!-- Generator: Sketch 49.3 (51167) - http://www.bohemiancoding.com/sketch -->
    <title>Icons/Stone/Logout</title>
    <desc>Created with Sketch.</desc>
    <defs></defs>
    <g id="Zedach---Atomic-Specs" stroke="none" stroke-width="1" fill="none" fill-rule="evenodd">
        <g id="Artboard-2" transform="translate(-141.000000, -351.000000)">
            <g id="Icons/Stone/Logout" transform="translate(141.000000, 238.000000)">
                <path d="M113.777778,227.555556 L227.555556,227.555556 C258.974421,227.555556 284.444444,202.085532 284.444444,170.666667 C284.444444,139.247801 258.974421,113.777778 227.555556,113.777778 L56.8888889,113.777778 C25.4700231,113.777778 0,139.247801 0,170.666667 L0,853.333333 C0,884.752199 25.4700231,910.222222 56.8888889,910.222222 L227.555556,910.222222 C258.974421,910.222222 284.444444,884.752199 284.444444,853.333333 C284.444444,821.914468 258.974421,796.444444 227.555556,796.444444 L113.777778,796.444444 L113.777778,227.555556 Z" id="Combined-Shape" fill="#262628" fill-rule="nonzero"></path>
                <polyline id="Path-16" stroke="#2B2B2D" stroke-width="113.777778" stroke-linecap="round" stroke-linejoin="round" points="341.333333 512 967.111111 512 625.777778 227.555556"></polyline>
                <path d="M967.111111,512 L625.777778,796.444444" id="Path-19" stroke="#2B2B2D" stroke-width="113.777778" stroke-linecap="round" stroke-linejoin="round"></path>
            </g>
        </g>
    </g>
</svg>