<?xml version="1.0" encoding="UTF-8"?>
<svg width="1024px" height="798px" viewBox="0 0 1024 798" version="1.1" xmlns="http://www.w3.org/2000/svg" xmlns:xlink="http://www.w3.org/1999/xlink">
    <!-- Generator: Sketch 49.3 (51167) - http://www.bohemiancoding.com/sketch -->
    <title>Icons/Chevron-right Copy 2</title>
    <desc>Created with Sketch.</desc>
    <defs>
        <path d="M113.777778,309.802801 L512,558.69169 L910.222222,309.802801 L910.222222,227.555556 L113.777778,227.555556 L113.777778,309.802801 Z M56.8888889,113.777778 L967.111111,113.777778 C998.529977,113.777778 1024,139.247801 1024,170.666667 L1024,341.333333 C1024,360.948055 1013.89541,379.179233 997.262162,389.575015 L542.151051,674.019459 C523.703675,685.549069 500.296325,685.549069 481.848949,674.019459 L26.7378381,389.575015 C10.1045872,379.179233 0,360.948055 0,341.333333 L0,170.666667 C0,139.247801 25.4700231,113.777778 56.8888889,113.777778 Z M113.777778,796.444444 L910.222222,796.444444 L910.222222,568.888889 C910.222222,537.470023 935.692245,512 967.111111,512 C998.529977,512 1024,537.470023 1024,568.888889 L1024,853.333333 C1024,884.752199 998.529977,910.222222 967.111111,910.222222 L56.8888889,910.222222 C25.4700231,910.222222 0,884.752199 0,853.333333 L0,568.888889 C0,537.470023 25.4700231,512 56.8888889,512 C88.3077547,512 113.777778,537.470023 113.777778,568.888889 L113.777778,796.444444 Z" id="path-1"></path>
    </defs>
    <g id="Zedach---Atomic-Specs" stroke="none" stroke-width="1" fill="none" fill-rule="evenodd">
        <g id="Artboard-2" transform="translate(-492.000000, -643.000000)">
            <g id="Icons/Stone/Mail" transform="translate(492.000000, 530.000000)">
                <mask id="mask-2" fill="white">
                    <use xlink:href="#path-1"></use>
                </mask>
                <use id="Combined-Shape" fill="#262628" fill-rule="nonzero" xlink:href="#path-1"></use>
            </g>
        </g>
    </g>
</svg>