<?xml version="1.0" encoding="UTF-8"?>
<svg width="1024px" height="1024px" viewBox="0 0 1024 1024" version="1.1" xmlns="http://www.w3.org/2000/svg" xmlns:xlink="http://www.w3.org/1999/xlink">
    <!-- Generator: Sketch 49.3 (51167) - http://www.bohemiancoding.com/sketch -->
    <title>Icons/Chevron-left Copy</title>
    <desc>Created with Sketch.</desc>
    <defs>
        <path d="M858.606371,1023.99786 C852.007189,1023.99786 846.369285,1023.55118 839.886759,1021.96053 C403.90504,965.620807 58.4880941,619.880566 2.04309776,184.125214 C0.450247491,177.638041 0.00305440299,171.997479 0.00305440299,165.394544 C-0.0177495282,162.630637 0.0621004624,159.596337 0.41707079,156.046634 C1.19521808,148.265161 2.97366094,140.75618 5.12543721,136.892033 C12.861339,117.552278 26.537956,104.852563 47.4803056,94.6140549 L275.939871,3.96788125 C311.843323,-7.99993591 351.955384,7.80178521 369.043215,41.9774464 L491.866777,287.820426 C508.652897,317.196135 502.864227,350.770421 479.364889,378.569026 L390.418907,466.748232 C436.091757,530.5856 492.656174,586.758358 557.415616,632.738703 L649.412792,540.984775 C673.230495,521.136689 706.804781,515.348019 733.397181,530.644557 L982.023469,654.957701 C1016.19913,672.045531 1032.00085,712.157593 1018.93446,751.071349 L927.398861,980.961944 C919.266594,997.226478 905.101347,1011.33029 886.717054,1018.06124 C878.274491,1021.65244 868.823886,1023.99786 858.606371,1023.99786 Z M900.449371,741.36612 L706.604873,644.368366 L572.99863,777.97461 L534.665782,754.167893 C426.514673,687.000362 335.167994,596.231827 268.779521,489.335134 L244.866786,450.831577 L277.054741,418.921103 L379.622204,317.550271 L282.646354,123.598571 L117.62765,188.976192 C174.049344,557.792952 465.901961,849.949909 834.844984,906.353468 L900.449371,741.36612 Z" id="path-1"></path>
    </defs>
    <g id="Zedach---Atomic-Specs" stroke="none" stroke-width="1" fill="none" fill-rule="evenodd">
        <g id="Artboard-2" transform="translate(-832.000000, -556.000000)">
            <g id="Icons/Stone/Phone" transform="translate(832.000000, 556.000000)">
                <mask id="mask-2" fill="white">
                    <use xlink:href="#path-1"></use>
                </mask>
                <use id="phone" fill="#262628" fill-rule="nonzero" xlink:href="#path-1"></use>
            </g>
        </g>
    </g>
</svg>