<?xml version="1.0" encoding="UTF-8"?>
<svg width="456px" height="797px" viewBox="0 0 456 797" version="1.1" xmlns="http://www.w3.org/2000/svg" xmlns:xlink="http://www.w3.org/1999/xlink">
    <!-- Generator: Sketch 49.3 (51167) - http://www.bohemiancoding.com/sketch -->
    <title>Icons/Stone/Smartphone</title>
    <desc>Created with Sketch.</desc>
    <defs></defs>
    <g id="Zedach---Atomic-Specs" stroke="none" stroke-width="1" fill="none" fill-rule="evenodd">
        <g id="Artboard-2" transform="translate(-1665.000000, -715.000000)" fill="#2B2B2D">
            <g id="Icons/Stone/Smartphone" transform="translate(1381.000000, 488.000000)">
                <path d="M341.333333,227.555556 L682.666667,227.555556 C720.592593,227.555556 739.555556,246.518519 739.555556,284.444444 C739.555556,322.37037 739.555556,549.925926 739.555556,967.111111 C739.555556,1005.03704 720.592593,1024 682.666667,1024 C625.777778,1024 398.222222,1024 341.333333,1024 C303.407407,1024 284.444444,1005.03704 284.444444,967.111111 C284.444444,549.925926 284.444444,322.37037 284.444444,284.444444 C284.444444,246.518519 303.407407,227.555556 341.333333,227.555556 Z M398.222222,341.333333 L398.222222,796.444444 L625.777778,796.444444 L625.777778,341.333333 L398.222222,341.333333 Z M512,967.111111 C543.418866,967.111111 568.888889,941.641088 568.888889,910.222222 C568.888889,878.803356 543.418866,853.333333 512,853.333333 C480.581134,853.333333 455.111111,878.803356 455.111111,910.222222 C455.111111,941.641088 480.581134,967.111111 512,967.111111 Z" id="Combined-Shape"></path>
            </g>
        </g>
    </g>
</svg>