<?xml version="1.0" encoding="UTF-8"?>
<svg width="684px" height="1024px" viewBox="0 0 684 1024" version="1.1" xmlns="http://www.w3.org/2000/svg" xmlns:xlink="http://www.w3.org/1999/xlink">
    <!-- Generator: Sketch 49.3 (51167) - http://www.bohemiancoding.com/sketch -->
    <title>Icons/Stone/Tablet</title>
    <desc>Created with Sketch.</desc>
    <defs></defs>
    <g id="Zedach---Atomic-Specs" stroke="none" stroke-width="1" fill="none" fill-rule="evenodd">
        <g id="Artboard-2" transform="translate(-1467.000000, -482.000000)" fill="#2B2B2D">
            <g id="Icons/Stone/Tablet" transform="translate(1297.000000, 482.000000)">
                <path d="M227.555556,0 L796.444444,0 C834.37037,0 853.333333,18.962963 853.333333,56.8888889 C853.333333,94.8148148 853.333333,398.222222 853.333333,967.111111 C853.333333,1005.03704 834.37037,1024 796.444444,1024 C739.555556,1024 284.444444,1024 227.555556,1024 C189.62963,1024 170.666667,1005.03704 170.666667,967.111111 C170.666667,398.222222 170.666667,94.8148148 170.666667,56.8888889 C170.666667,18.962963 189.62963,0 227.555556,0 Z M284.444444,113.777778 L284.444444,796.444444 L739.555556,796.444444 L739.555556,113.777778 L284.444444,113.777778 Z M512,967.111111 C543.418866,967.111111 568.888889,941.641088 568.888889,910.222222 C568.888889,878.803356 543.418866,853.333333 512,853.333333 C480.581134,853.333333 455.111111,878.803356 455.111111,910.222222 C455.111111,941.641088 480.581134,967.111111 512,967.111111 Z" id="Combined-Shape"></path>
            </g>
        </g>
    </g>
</svg>