<?xml version="1.0" encoding="UTF-8"?>
<svg width="798px" height="1024px" viewBox="0 0 798 1024" version="1.1" xmlns="http://www.w3.org/2000/svg" xmlns:xlink="http://www.w3.org/1999/xlink">
    <!-- Generator: Sketch 49.3 (51167) - http://www.bohemiancoding.com/sketch -->
    <title>Icons/Stone/Upload</title>
    <desc>Created with Sketch.</desc>
    <defs>
        <path d="M722.093188,211.369164 L478.575839,454.886513 L1022.90291,454.886513 C1023.45467,454.886513 1023.90058,455.33464 1023.90058,455.887433 L1023.90058,567.663371 C1023.90058,568.217703 1023.45391,568.664291 1022.90291,568.664291 L478.575839,568.664291 L722.093188,812.18164 C722.475305,812.563757 722.47689,813.19909 722.086007,813.589974 L643.048483,892.627497 C642.656511,893.019469 642.022088,893.016616 641.629027,892.623556 L261.492572,512.487101 C261.092869,512.087398 261.099512,511.456764 261.492572,511.063703 L641.629027,130.927248 C642.02873,130.527545 642.6576,130.532423 643.048483,130.923307 L722.086007,209.96083 C722.477979,210.352803 722.480105,210.982247 722.093188,211.369164 Z M113.777778,227.555556 L113.777778,796.444444 L227.555556,796.444444 C258.974421,796.444444 284.444444,821.914468 284.444444,853.333333 C284.444444,884.752199 258.974421,910.222222 227.555556,910.222222 L56.8888889,910.222222 C25.4700231,910.222222 0,884.752199 0,853.333333 L0,170.666667 C0,139.247801 25.4700231,113.777778 56.8888889,113.777778 L227.555556,113.777778 C258.974421,113.777778 284.444444,139.247801 284.444444,170.666667 C284.444444,202.085532 258.974421,227.555556 227.555556,227.555556 L113.777778,227.555556 Z" id="path-1"></path>
    </defs>
    <g id="Zedach---Atomic-Specs" stroke="none" stroke-width="1" fill="none" fill-rule="evenodd">
        <g id="Artboard-2" transform="translate(-552.000000, -341.000000)">
            <g id="Icons/Stone/Upload" transform="translate(439.000000, 341.000000)">
                <mask id="mask-2" fill="white">
                    <use xlink:href="#path-1"></use>
                </mask>
                <use id="Combined-Shape" fill="#262628" fill-rule="nonzero" transform="translate(511.950289, 512.000000) rotate(90.000000) translate(-511.950289, -512.000000) " xlink:href="#path-1"></use>
            </g>
        </g>
    </g>
</svg>